<?xml version="1.0" encoding="UTF-8"?>
<svg width="536px" height="610px" viewBox="0 0 536 610" version="1.1" xmlns="http://www.w3.org/2000/svg" xmlns:xlink="http://www.w3.org/1999/xlink">
    <g id="Page-1" stroke="none" stroke-width="1" fill="none" fill-rule="evenodd" fill-opacity="0">
        <g id="Group" transform="translate(250.577683, 288.603104) rotate(-35.000000) translate(-250.577683, -288.603104) translate(100.577683, -11.398557)" fill="#D8D8D8" stroke="#000000" stroke-width="20">
            <path d="M105.398715,-2.27373675e-13 L190.74451,-2.27373675e-13 C204.4552,-2.70491538e-13 217.564359,5.63020458 227.004653,15.5732368 L286.238141,77.9611744 C295.072853,87.2663746 299.992112,99.6118933 299.977968,112.443054 L299.496231,549.459627 C299.496231,577.02807 277.184839,599.376709 249.662344,599.376709 L50.3267953,599.376709 C22.8042995,599.376709 0.492908295,577.02807 0.492908295,549.459627 L0.492908295,111.522692 C0.492908295,99.2427861 5.01191927,87.3923019 13.1884445,78.2303958 L68.0942512,16.7077039 C77.5807563,6.07794785 91.1514173,-2.03440207e-13 105.398715,-2.27373675e-13 Z" id="Rectangle"></path>
            <ellipse id="Oval" cx="149.501661" cy="113.810946" rx="54.8504983" ry="54.9253735"></ellipse>
        </g>
    </g>
</svg>